<svg width="512" height="512" viewBox="0 0 512 512" fill="none" xmlns="http://www.w3.org/2000/svg">
<path d="M48.7702 294.357L34.7119 303.729V338.441H17.3559L-4.76837e-07 303.729L8.67797 286.373L48.7702 294.357Z" fill="#898890"/>
<path d="M286.373 312.407H485.966V512H286.373V312.407Z" fill="#E0E0E2"/>
<path d="M112.814 121.492L78.1017 338.441H216.949L182.237 121.492H112.814Z" fill="#C6C5CA"/>
<path d="M190.915 312.407H286.373V407.864H190.915V312.407Z" fill="#ACABB1"/>
<path d="M60.7458 407.864H225.627V512H60.7458V407.864Z" fill="#787680"/>
<path d="M355.797 442.576H416.542V512H355.797V442.576Z" fill="#C0AB91"/>
<path d="M416.542 347.119H451.254V381.831H416.542V347.119ZM321.085 347.119H355.797V381.831H321.085V347.119Z" fill="#BDFDFF"/>
<path d="M451.254 347.119H416.542V381.831C416.542 362.661 432.085 347.119 451.254 347.119ZM355.797 347.119H321.085V381.831C321.085 362.661 336.627 347.119 355.797 347.119Z" fill="white"/>
<path d="M190.915 86.7797L182.237 121.492H112.814L104.136 86.7797H190.915Z" fill="#898890"/>
<path d="M95.4576 303.729L78.1017 295.051L87.821 287.762L112.814 269.017L154.987 302.775L138.847 312.407L147.525 338.441H95.4576V303.729Z" fill="#3E3D42"/>
<path d="M48.7702 294.357L60.7458 286.373L95.4576 303.729V338.441H34.7119V303.729L48.7702 294.357Z" fill="#ACABB1"/>
<path d="M208.271 338.441L204.106 373.673L199.593 373.153H4.08081L-4.76837e-07 338.441H208.271Z" fill="#B39A7C"/>
<path d="M225.627 407.864H286.373V512H225.627V407.864Z" fill="#898890"/>
<path d="M347.119 251.661V312.407H208.271L214.085 307.026L218.772 302.687L274.05 251.661H347.119Z" fill="#787680"/>
<path d="M347.119 208.271V251.661H274.05L321.085 208.271H347.119Z" fill="#D8D7DA"/>
<path d="M459.932 208.271H425.22L386.632 251.661H459.932V208.271Z" fill="#ACABB1"/>
<path d="M459.932 251.661V312.407H347.119V296.092L386.601 251.661H459.932Z" fill="#C6C5CA"/>
<path d="M373.153 468.61H390.508V485.966H373.153V468.61ZM164.881 26.0339V-4.76837e-07H147.525V17.3559H130.169C127.868 17.3559 125.661 18.2702 124.033 19.8976C122.406 21.5251 121.492 23.7324 121.492 26.0339V69.4237H138.847V34.7119H156.203C158.505 34.7119 160.712 33.7976 162.34 32.1701C163.967 30.5427 164.881 28.3354 164.881 26.0339ZM182.237 43.3898H164.881C162.58 43.3898 160.373 44.3041 158.745 45.9315C157.118 47.559 156.203 49.7663 156.203 52.0678V69.4237H173.559V60.7458H190.915C193.217 60.7458 195.424 59.8315 197.052 58.204C198.679 56.5766 199.593 54.3693 199.593 52.0678V34.7119H182.237V43.3898ZM182.237 -4.76837e-07H199.593V17.3559H182.237V-4.76837e-07Z" fill="#E0E0E2"/>
<path d="M260.339 433.898H286.373V451.254H260.339V433.898ZM260.339 468.61H286.373V485.966H260.339V468.61Z" fill="#ACABB1"/>
<path d="M130.169 121.492H147.525V147.525H130.169V121.492ZM156.203 121.492H173.559V164.881H156.203V121.492Z" fill="#D8D7DA"/>
<path d="M208.271 312.407V338.441H147.525L138.847 312.407L154.987 302.775L182.237 286.373L208.271 312.407Z" fill="#57565C"/>
<path d="M208.271 338.441L204.19 373.153H4.08081L-4.76837e-07 338.441H208.271Z" fill="#B39A7C"/>
<path d="M204.19 373.153L190.915 485.966H17.3559L4.08081 373.153H204.19Z" fill="#D9CCBC"/>
<path d="M204.19 373.153H4.08081L6.11905 390.508H202.152L204.19 373.153Z" fill="#957856"/>
<path d="M78.1017 485.966H190.915V494.644H78.1017V485.966Z" fill="#57565C"/>
<path d="M86.7797 485.966C86.7797 500.343 75.123 512 60.7458 512C46.3685 512 34.7119 500.343 34.7119 485.966C34.7119 471.589 46.3685 459.932 60.7458 459.932C75.123 459.932 86.7797 471.589 86.7797 485.966ZM173.559 485.966C173.559 500.343 161.903 512 147.525 512C133.148 512 121.492 500.343 121.492 485.966C121.492 471.589 133.148 459.932 147.525 459.932C161.903 459.932 173.559 471.589 173.559 485.966Z" fill="#ACABB1"/>
<path d="M69.4237 485.966C69.4237 488.268 68.5094 490.475 66.882 492.102C65.2546 493.73 63.0473 494.644 60.7458 494.644C58.4442 494.644 56.2369 493.73 54.6095 492.102C52.9821 490.475 52.0678 488.268 52.0678 485.966C52.0678 483.665 52.9821 481.457 54.6095 479.83C56.2369 478.202 58.4442 477.288 60.7458 477.288C63.0473 477.288 65.2546 478.202 66.882 479.83C68.5094 481.457 69.4237 483.665 69.4237 485.966ZM156.203 485.966C156.203 488.268 155.289 490.475 153.662 492.102C152.034 493.73 149.827 494.644 147.525 494.644C145.224 494.644 143.017 493.73 141.389 492.102C139.762 490.475 138.847 488.268 138.847 485.966C138.847 483.665 139.762 481.457 141.389 479.83C143.017 478.202 145.224 477.288 147.525 477.288C149.827 477.288 152.034 478.202 153.662 479.83C155.289 481.457 156.203 483.665 156.203 485.966Z" fill="#787680"/>
<path d="M26.0339 347.119H78.1017C80.4032 347.119 82.6105 348.033 84.2379 349.66C85.8654 351.288 86.7797 353.495 86.7797 355.797C86.7797 358.098 85.8654 360.305 84.2379 361.933C82.6105 363.56 80.4032 364.475 78.1017 364.475H26.0339C23.7324 364.475 21.5251 363.56 19.8976 361.933C18.2702 360.305 17.3559 358.098 17.3559 355.797C17.3559 353.495 18.2702 351.288 19.8976 349.66C21.5251 348.033 23.7324 347.119 26.0339 347.119Z" fill="#C0AB91"/>
</svg>
