<svg width="512" height="512" viewBox="0 0 512 512" fill="none" xmlns="http://www.w3.org/2000/svg">
<path fill-rule="evenodd" clip-rule="evenodd" d="M255.793 93.5795C255.023 93.5989 254.257 93.4616 253.542 93.1759C252.827 92.8901 252.177 92.4619 251.633 91.9173C251.088 91.3727 250.66 90.723 250.374 90.0077C250.088 89.2925 249.951 88.5266 249.97 87.7566V58.6186C249.97 50.9059 261.616 50.9059 261.616 58.6186V87.7566C262.03 90.6739 259.124 93.5795 255.793 93.5795Z" fill="#474F54"/>
<path fill-rule="evenodd" clip-rule="evenodd" d="M272.01 64.4533H240.002C232.277 64.4533 232.277 52.8075 240.002 52.8075H272.022C279.746 52.8075 279.734 64.4533 272.01 64.4533Z" fill="#474F54"/>
<path fill-rule="evenodd" clip-rule="evenodd" d="M209.624 93.5795C207.025 93.5795 187.62 92.044 179.269 89.7999V89.8353C179.671 93.1543 176.765 95.6582 173.434 95.6582C172.664 95.6777 171.899 95.5404 171.183 95.2546C170.468 94.9689 169.818 94.5407 169.274 93.9961C168.729 93.4514 168.301 92.8017 168.015 92.0865C167.729 91.3712 167.592 90.6053 167.612 89.8353V31.1813C167.612 24.7443 175.702 23.6813 178.395 27.9687C187.643 23.6813 215.447 24.7443 215.447 31.1813V87.3314C215.447 90.6621 212.954 93.5795 209.624 93.5795ZM302.376 93.5795C301.606 93.5989 300.84 93.4616 300.125 93.1759C299.41 92.8901 298.76 92.4619 298.216 91.9173C297.671 91.3727 297.243 90.723 296.957 90.0077C296.671 89.2925 296.534 88.5266 296.553 87.7566V31.1813C296.553 24.8624 304.372 23.7167 307.195 27.7561C316.951 23.7167 343.975 24.8624 343.975 31.1813V89.8353C344.388 93.1543 341.483 95.6582 338.152 95.6582C335.436 95.6582 314.412 94.0047 306.617 91.607C306.093 92.2205 305.443 92.7134 304.711 93.0518C303.979 93.3903 303.183 93.578 302.376 93.5795Z" fill="#05CB26"/>
<path fill-rule="evenodd" clip-rule="evenodd" d="M346.467 511.598H165.533C161.08 511.598 158.281 506.602 160.123 502.858L174.686 472.917C178.501 465.689 284.364 484.185 326.093 478.326C322.408 471.393 333.664 465.807 336.9 473.33L351.463 503.283C353.353 507.098 350.518 511.598 346.467 511.598Z" fill="#474F54"/>
<path fill-rule="evenodd" clip-rule="evenodd" d="M319.018 482.484H192.994C143.481 482.484 103.135 442.137 103.135 392.637V171.356C103.135 121.867 143.481 81.5085 192.982 81.5085H319.006C368.519 81.5085 408.865 121.855 408.865 171.356V392.637C408.865 442.137 368.519 482.484 319.018 482.484Z" fill="#00FF2B"/>
<path fill-rule="evenodd" clip-rule="evenodd" d="M103.654 402.204C103.312 399.026 103.139 395.833 103.135 392.637V171.356C103.135 168.119 103.324 164.93 103.654 161.789H408.346C408.688 164.93 408.865 168.119 408.865 171.356V392.637C408.865 395.873 408.688 399.062 408.346 402.204H103.654Z" fill="#05CB26"/>
<path fill-rule="evenodd" clip-rule="evenodd" d="M247.478 387.641H246.652C223.762 384.735 205.88 372.263 195.061 351.463C180.509 322.762 180.923 281.164 196.726 252.463C199.655 246.911 208.431 249.085 207.958 255.793C207.958 256.62 207.132 273.274 215.447 282.841C205.88 243.734 217.1 196.313 255.793 176.765C259.998 174.45 265.738 178.277 264.534 183.84C254.14 222.521 279.498 252.463 306.534 267.852C343.621 289.006 328.054 370.55 279.923 386.814C274.372 388.692 268.845 381.901 273.675 376.834C273.675 376.834 291.156 357.7 288.238 328.172C288.238 327.758 286.16 305.707 274.089 290.317C276.746 307.124 271.608 315.593 271.608 315.687C270.77 316.514 262.443 329.412 253.715 334.408C250.797 336.487 242.896 343.562 242.896 349.385C242.896 351.499 238.927 370.586 250.809 376.834C252.047 377.484 253.017 378.549 253.548 379.843C254.08 381.136 254.138 382.576 253.715 383.908C252.049 385.987 249.97 387.641 247.478 387.641Z" fill="#EF4242"/>
<path fill-rule="evenodd" clip-rule="evenodd" d="M349.172 37.0042H162.804C152.824 37.0042 144.497 28.6892 144.497 18.697C144.497 8.70479 152.836 0.413392 162.828 0.413392H349.172C359.164 0.413392 367.479 8.72842 367.479 18.7206C367.893 29.1144 359.566 37.0278 349.172 37.0278V37.0042Z" fill="#05CB26"/>
</svg>
