<svg width="512" height="512" viewBox="0 0 512 512" fill="none" xmlns="http://www.w3.org/2000/svg">
<path d="M392.48 312.012C392.48 418.32 306.3 504.5 199.988 504.5C93.68 504.5 7.5 418.32 7.5 312.012C7.5 148.156 199.988 7.5 199.988 7.5C199.988 7.5 392.48 148.156 392.48 312.012Z" fill="#40C1FA"/>
<path d="M199.988 7.5C199.988 7.5 199.035 8.2 197.258 9.555C253.555 60.492 350.473 165.078 350.473 281.348C350.473 387.656 264.293 473.84 157.98 473.84C124.93 473.84 93.828 465.504 66.652 450.828C101.246 484.066 148.23 504.5 199.988 504.5C306.301 504.5 392.48 418.32 392.48 312.012C392.48 148.156 199.988 7.5 199.988 7.5Z" fill="#07A9F0"/>
<path d="M261.45 161.64H178.258L111.94 283.013L187.26 282.896L142.194 391.36L291.04 243.406H207.08L261.45 161.64Z" fill="#FFD508"/>
<path d="M342.805 356.82C345.342 349.902 347.492 342.848 349.246 335.691C349.684 333.772 349.35 331.757 348.316 330.082C347.282 328.408 345.63 327.206 343.718 326.738C341.806 326.27 339.787 326.573 338.096 327.58C336.405 328.588 335.178 330.221 334.68 332.125C333.056 338.74 331.067 345.26 328.723 351.656C328.384 352.581 328.231 353.563 328.271 354.547C328.312 355.531 328.546 356.497 328.96 357.39C329.374 358.284 329.96 359.087 330.685 359.754C331.41 360.421 332.258 360.938 333.183 361.277C337.078 362.711 341.383 360.699 342.805 356.82ZM276.559 446.762C300.984 428.039 321.047 403.586 334.582 376.047C335.427 374.266 335.537 372.224 334.888 370.363C334.239 368.502 332.884 366.971 331.115 366.102C329.346 365.232 327.306 365.094 325.436 365.717C323.566 366.34 322.016 367.673 321.122 369.43C308.598 394.91 290.035 417.535 267.434 434.86C266.632 435.452 265.956 436.197 265.446 437.053C264.935 437.909 264.6 438.858 264.461 439.845C264.321 440.831 264.379 441.836 264.632 442.8C264.886 443.764 265.328 444.668 265.935 445.459C266.541 446.249 267.299 446.912 268.164 447.406C269.029 447.901 269.984 448.218 270.973 448.339C271.962 448.461 272.966 448.384 273.925 448.113C274.884 447.842 275.779 447.383 276.559 446.762ZM147.48 396.68L296.328 248.727C301.055 244.027 297.734 235.907 291.043 235.907H221.074L267.695 165.793C271.004 160.82 267.434 154.141 261.449 154.141H178.262C176.915 154.14 175.593 154.502 174.434 155.19C173.276 155.877 172.325 156.864 171.68 158.047L150.668 196.497C150.196 197.361 149.899 198.31 149.793 199.289C149.688 200.268 149.776 201.258 150.053 202.203C150.33 203.148 150.791 204.029 151.409 204.795C152.026 205.562 152.789 206.2 153.653 206.672C154.517 207.144 155.466 207.441 156.445 207.547C157.424 207.652 158.414 207.564 159.359 207.287C160.304 207.01 161.185 206.549 161.951 205.931C162.718 205.314 163.356 204.551 163.828 203.687L182.707 169.141H247.453L200.832 239.254C200.08 240.384 199.65 241.696 199.586 243.051C199.522 244.407 199.827 245.754 200.469 246.949C201.109 248.145 202.062 249.145 203.227 249.842C204.391 250.539 205.722 250.907 207.079 250.906H272.855L163.515 359.59L194.188 285.773C194.661 284.632 194.846 283.392 194.725 282.163C194.604 280.934 194.182 279.754 193.496 278.727C192.811 277.702 191.884 276.861 190.796 276.28C189.709 275.699 188.495 275.395 187.262 275.395H187.25L124.594 275.492L150.035 228.934C150.989 227.188 151.21 225.135 150.65 223.227C150.09 221.318 148.795 219.71 147.049 218.756C145.303 217.802 143.25 217.581 141.342 218.141C139.433 218.701 137.825 219.996 136.871 221.742L105.359 279.414C102.637 284.391 106.23 290.508 111.941 290.508H111.949L176.016 290.414L135.27 388.48C132.102 396.102 141.762 402.363 147.48 396.68Z" fill="black"/>
<path d="M359.45 173.816C358.965 172.959 358.315 172.206 357.539 171.6C356.762 170.994 355.874 170.547 354.924 170.284C353.975 170.022 352.983 169.949 352.006 170.069C351.028 170.19 350.084 170.502 349.227 170.988C348.37 171.473 347.617 172.123 347.011 172.899C346.405 173.676 345.958 174.564 345.695 175.514C345.432 176.463 345.359 177.455 345.48 178.432C345.6 179.41 345.912 180.354 346.398 181.211C372 226.387 384.98 270.395 384.98 312.011C384.98 414.011 301.992 497 199.988 497C97.984 497 15 414.012 15 312.012C15 275.855 24.828 237.766 44.21 198.805C59.863 167.344 81.73 135.262 109.21 103.457C147.906 58.66 187.07 26.941 199.988 16.922C217.492 30.508 283.207 83.988 331.156 156.406C331.7 157.227 332.4 157.933 333.217 158.484C334.033 159.035 334.95 159.419 335.916 159.616C336.881 159.812 337.875 159.816 338.842 159.628C339.809 159.44 340.729 159.063 341.551 158.52C342.372 157.976 343.078 157.276 343.629 156.459C344.179 155.642 344.564 154.725 344.76 153.76C344.956 152.795 344.96 151.8 344.772 150.833C344.584 149.867 344.208 148.946 343.664 148.125C286.691 62.082 207.75 3.879 204.414 1.445C203.13 0.506408 201.581 0.000539384 199.99 0.000539384C198.399 0.000539384 196.85 0.506408 195.566 1.445C193.57 2.902 146.2 37.754 98.07 93.402C69.723 126.187 47.11 159.344 30.863 191.961C10.383 233.074 0 273.465 0 312.01C0 422.286 89.715 512 199.988 512C310.266 512 399.98 422.285 399.98 312.012C399.98 267.77 386.344 221.273 359.45 173.816Z" fill="black"/>
</svg>
