<svg width="406" height="448" viewBox="0 0 406 448" fill="none" xmlns="http://www.w3.org/2000/svg">
<path d="M37.908 346.603C35.657 345.45 33.0405 345.236 30.6323 346.009C28.2241 346.782 26.2205 348.478 25.061 350.726C24.1992 352.404 23.8543 354.3 24.0697 356.174C24.2852 358.048 25.0514 359.816 26.2716 361.255C27.4917 362.693 29.1109 363.737 30.9245 364.256C32.7381 364.774 34.6646 364.743 36.4606 364.166C38.2565 363.59 39.8412 362.494 41.0143 361.017C42.1873 359.54 42.8961 357.748 43.0511 355.868C43.206 353.988 42.8001 352.105 41.8846 350.456C40.9692 348.806 39.5853 347.466 37.908 346.603ZM62.223 362.266C60.4267 362.843 58.8418 363.94 57.6687 365.417C56.4955 366.895 55.7867 368.687 55.632 370.568C55.4772 372.448 55.8833 374.332 56.799 375.982C57.7147 377.631 59.0989 378.973 60.7767 379.836C62.4544 380.699 64.3504 381.045 66.2249 380.831C68.0994 380.617 69.8684 379.852 71.3082 378.632C72.7481 377.413 73.7941 375.794 74.3142 373.981C74.8342 372.167 74.8049 370.24 74.23 368.443C73.8474 367.249 73.2333 366.142 72.4228 365.185C71.6122 364.228 70.6212 363.441 69.5061 362.867C68.3911 362.293 67.174 361.945 65.9244 361.842C64.6747 361.739 63.417 361.883 62.223 362.266ZM196.112 212.878C196.849 213.769 197.77 214.49 198.812 214.991C199.854 215.492 200.993 215.761 202.149 215.78C203.305 215.799 204.452 215.567 205.51 215.1C206.568 214.633 207.512 213.942 208.277 213.075C210.639 210.398 266.231 147.178 276.642 116.676C288.678 81.41 286.391 52.591 269.844 31.021C250.988 6.441 218.072 -0.991999 201.744 0.104001C170.908 2.167 148.412 13.444 134.882 33.621C119.202 57.005 119.392 89.037 126.536 110.408C136.686 140.768 193.69 209.948 196.112 212.878ZM148.171 42.532C158.796 26.687 177.181 17.782 202.812 16.068C219.234 14.968 244.222 23.907 257.149 40.76C270.235 57.819 271.699 81.622 261.499 111.508C254.593 131.744 220.833 173.824 202.469 195.343C183.662 171.938 148.539 125.756 141.71 105.335C137.305 92.157 133.708 64.1 148.17 42.532H148.171Z" fill="#FF0000"/>
<path d="M400.635 277.07C242.554 206.625 271.328 219.603 242.359 206.133C241.405 205.683 240.372 205.425 239.319 205.375C238.265 205.326 237.212 205.485 236.22 205.844C235.229 206.202 234.318 206.754 233.54 207.466C232.762 208.178 232.133 209.037 231.688 209.993C231.243 210.95 230.992 211.985 230.949 213.038C230.905 214.092 231.071 215.144 231.436 216.134C231.801 217.123 232.357 218.031 233.074 218.804C233.791 219.578 234.654 220.202 235.613 220.641L241.763 223.501L203.066 243.381L162.731 222.66L168.988 219.727C169.939 219.281 170.793 218.652 171.502 217.876C172.21 217.1 172.758 216.193 173.116 215.205C173.473 214.217 173.633 213.168 173.585 212.119C173.537 211.069 173.283 210.039 172.837 209.088C172.391 208.137 171.762 207.283 170.986 206.574C170.21 205.866 169.303 205.318 168.315 204.96C166.319 204.238 164.119 204.339 162.198 205.239L5.146 277.168C3.75417 277.81 2.57454 278.836 1.74583 280.125C0.917126 281.414 0.473802 282.913 0.467999 284.446V341.185C0.467999 343.307 1.31085 345.342 2.81115 346.842C4.31144 348.342 6.34627 349.185 8.468 349.185C10.5897 349.185 12.6246 348.342 14.1249 346.842C15.6251 345.342 16.468 343.307 16.468 341.185V297.549L192.814 388.144V426.895L99.064 378.733C98.1286 378.244 97.1057 377.944 96.0542 377.852C95.0026 377.76 93.9433 377.877 92.9371 378.196C91.931 378.516 90.9979 379.031 90.1918 379.712C89.3856 380.394 88.7223 381.228 88.24 382.167C87.7578 383.106 87.4661 384.131 87.3818 385.183C87.2975 386.235 87.4223 387.294 87.7489 388.297C88.0755 389.301 88.5976 390.23 89.285 391.031C89.9724 391.833 90.8115 392.49 91.754 392.965L197.159 447.115C198.281 447.684 199.52 447.984 200.778 447.989C202.036 447.995 203.278 447.707 204.405 447.148L401.123 348.333C402.448 347.667 403.563 346.647 404.342 345.384C405.12 344.122 405.533 342.668 405.533 341.185V284.445C405.524 282.872 405.056 281.336 404.186 280.026C403.315 278.716 402.081 277.688 400.635 277.07ZM200.855 374.288L155.383 350.928L203.193 326.366L249.103 350.052L200.855 374.288ZM92.06 318.396L140.003 293.766L185.723 317.354L137.877 341.934L92.06 318.396ZM260.212 232.01L309.282 253.877L266.39 275.913L220.572 252.374L260.212 232.01ZM203.066 261.368L248.883 284.906L203.208 308.371L157.488 284.783L203.066 261.368ZM266.784 341.171L220.677 317.384L266.39 293.9L313.108 317.9L266.784 341.171ZM330.811 309.008L283.896 284.906L328.031 262.233L378.849 284.878L330.811 309.008ZM185.56 252.375L140.019 275.771L96.24 253.185L144.377 231.218L185.56 252.375ZM77.723 261.635L122.533 284.753L74.553 309.403L26.803 284.872L77.723 261.635ZM208.814 427.028V388.195L389.532 297.417V336.25L208.814 427.028ZM203 115.89C209.605 115.89 216.062 113.931 221.554 110.262C227.046 106.592 231.326 101.376 233.854 95.2739C236.382 89.1715 237.043 82.4566 235.754 75.9784C234.466 69.5002 231.285 63.5496 226.614 58.8791C221.944 54.2086 215.993 51.0281 209.515 49.7396C203.036 48.4511 196.322 49.1126 190.219 51.6404C184.117 54.1682 178.901 58.4488 175.232 63.9409C171.562 69.433 169.604 75.8899 169.604 82.495C169.614 91.3489 173.136 99.8372 179.397 106.098C185.658 112.358 194.146 115.88 203 115.89ZM203 65.099C206.441 65.099 209.804 66.1193 212.665 68.0308C215.525 69.9423 217.755 72.6591 219.072 75.8378C220.388 79.0165 220.733 82.5143 220.062 85.8888C219.391 89.2633 217.734 92.363 215.301 94.7958C212.868 97.2287 209.768 98.8855 206.394 99.5567C203.019 100.228 199.522 99.8835 196.343 98.5668C193.164 97.2501 190.447 95.0205 188.536 92.1597C186.624 89.2989 185.604 85.9356 185.604 82.495C185.609 77.8828 187.443 73.461 190.705 70.1997C193.966 66.9384 198.388 65.104 203 65.099Z" fill="#FFCC00"/>
</svg>
